Coordinates
version=1
nRows=17
nColumns=40
inDegrees=yes

Units are S.I. units (second, meters, Newtons, ...)
Angles are in degrees.

endheader
time	pelvis_tilt	pelvis_list	pelvis_rotation	pelvis_tx	pelvis_ty	pelvis_tz	hip_flexion_r	hip_adduction_r	hip_rotation_r	knee_angle_r	knee_angle_r_beta	ankle_angle_r	subtalar_angle_r	mtp_angle_r	hip_flexion_l	hip_adduction_l	hip_rotation_l	knee_angle_l	knee_angle_l_beta	ankle_angle_l	subtalar_angle_l	mtp_angle_l	lumbar_extension	lumbar_bending	lumbar_rotation	arm_flex_r	arm_add_r	arm_rot_r	elbow_flex_r	pro_sup_r	wrist_flex_r	wrist_dev_r	arm_flex_l	arm_add_l	arm_rot_l	elbow_flex_l	pro_sup_l	wrist_flex_l	wrist_dev_l
     24.08378571	     -4.04112030	     -4.53370624	     11.66534809	      0.94743299	      0.92134287	      0.50830248	      4.79098714	      4.11519133	    -17.47532727	     16.17574475	     16.17574475	     17.47183396	     -5.85719125	     -3.19096492	     29.38046939	     -6.93294141	      2.13340493	     21.26567086	     21.26567086	      5.49998392	     -6.93933539	      6.57387074	     -8.59586368	      4.83667590	      3.70762763	     41.05162730	    -20.33085282	    -13.52363783	     84.43644749	     44.97621911	      0.00000000	      0.00000000	    -15.72025127	     -9.60259210	     10.99714553	     32.86577172	     44.07302940	      0.00000000	      0.00000000
     24.10257143	     -4.23733864	     -4.62262358	     11.88725058	      0.94746660	      0.92037764	      0.50537251	      4.54245592	      4.07940263	    -17.56027712	     16.10719814	     16.10719814	     17.73065298	     -5.95922542	     -3.25949514	     29.36964358	     -6.72703018	      2.22480009	     21.34011540	     21.34011540	      5.39021452	     -6.83089045	      6.40140200	     -8.36744091	      4.69936863	      3.78787703	     41.47113644	    -20.28539331	    -13.49257627	     84.47096461	     44.97660171	      0.00000000	      0.00000000	    -15.26660599	     -9.72936248	     10.99100421	     33.00245985	     44.08368176	      0.00000000	      0.00000000
     24.12135714	     -4.16417328	     -4.80472720	     12.06335766	      0.94783466	      0.91955712	      0.50241169	      3.93987894	      4.21736115	    -17.67244293	     15.89875203	     15.89875203	     17.86120083	     -5.92659961	     -3.41420747	     29.08777424	     -6.78555782	      2.05150920	     21.46304327	     21.46304327	      3.98860307	     -6.94895722	      2.46205201	     -8.36955766	      4.68047077	      3.62604134	     42.50944143	    -19.82866210	    -13.56514874	     82.82431568	     45.05849909	      0.00000000	      0.00000000	    -14.69406771	     -9.92211382	     11.61710172	     32.78629621	     44.10414881	      0.00000000	      0.00000000
     24.14014286	     -4.23486242	     -4.83286868	     12.26713556	      0.94816479	      0.91870502	      0.49913032	      3.56325525	      4.11464154	    -17.72933532	     15.90121733	     15.90121733	     18.10778322	     -6.04052060	     -3.45241914	     29.03715153	     -6.57475693	      2.16391431	     21.98303513	     21.98303513	      4.03213899	     -7.14065866	      2.26666353	     -8.34622611	      4.50557322	      3.59604395	     42.53882663	    -19.68517756	    -13.50668558	     82.75527916	     45.05961650	      0.00000000	      0.00000000	    -14.01356341	    -10.08341871	     11.57587237	     32.98483321	     44.12331695	      0.00000000	      0.00000000
     24.15892857	     -4.14735322	     -5.00824631	     12.41436675	      0.94865129	      0.91779325	      0.49573234	      3.08402544	      4.17491041	    -17.79244704	     15.99955825	     15.99955825	     18.33858227	     -6.08250510	     -3.44348249	     29.20186002	     -6.54862575	      2.45820693	     23.21720693	     23.21720693	      4.22233687	     -7.76389533	      1.73347614	     -8.45180197	      4.50066438	      3.74805015	     42.51841573	    -19.74153185	    -13.66505963	     82.17435320	     45.08657296	      0.00000000	      0.00000000	    -13.32337098	    -10.27112675	     11.52313023	     33.10929008	     44.15410801	      0.00000000	      0.00000000
     24.17771429	     -4.15107571	     -5.13279659	     12.54946648	      0.94919598	      0.91698336	      0.49212603	      2.66996252	      4.14957876	    -17.87147261	     16.06539516	     16.06539516	     18.54714623	     -6.10405445	     -3.32342811	     29.34879064	     -6.44344057	      2.74449729	     24.29223560	     24.29223560	      4.44414349	     -8.34331696	      1.25489864	     -8.42118107	      4.44913422	      3.91095200	     42.30507183	    -19.69737813	    -13.96875621	     81.04342242	     45.13698149	      0.00000000	      0.00000000	    -12.44936894	    -10.45692531	     11.44333340	     33.19516816	     44.20147150	      0.00000000	      0.00000000
     24.19650000	     -4.12022225	     -5.19784807	     12.62443707	      0.94994835	      0.91639651	      0.48830550	      2.18538164	      4.04231117	    -17.95193563	     16.13339520	     16.13339520	     18.74417659	     -6.00215113	     -3.09305951	     29.39837120	     -6.27636759	      3.06338329	     25.35296247	     25.35296247	      4.83515241	     -9.02296266	      1.05153900	     -8.41375741	      4.33547327	      4.03045192	     42.01374744	    -19.52522531	    -14.37746163	     79.44815600	     45.20736115	      0.00000000	      0.00000000	    -11.58510607	    -10.62504268	     11.27670359	     33.25847940	     44.27477737	      0.00000000	      0.00000000
     24.21528571	     -4.06307027	     -5.20153339	     12.63653596	      0.95082757	      0.91602977	      0.48437161	      1.64174446	      3.87069015	    -17.95925306	     16.17709902	     16.17709902	     18.83310307	     -5.95276659	     -3.04792452	     29.34026548	     -6.08484253	      3.26953392	     26.33739608	     26.33739608	      5.33476468	     -9.57220373	      0.81052191	     -8.51285685	      4.20183285	      4.05729373	     41.33629589	    -19.27152118	    -14.36539596	     78.76031248	     45.22743633	      0.00000000	      0.00000000	    -10.83774876	    -10.85852578	     11.15139940	     33.49696458	     44.30961564	      0.00000000	      0.00000000
     24.23407143	     -4.08020468	     -5.33978002	     12.58626327	      0.95173759	      0.91576106	      0.48028081	      1.13838107	      3.79446144	    -18.11028853	     16.09450078	     16.09450078	     18.83627148	     -5.50896639	     -2.88814112	     29.40251819	     -5.94146273	      3.73479403	     27.35871619	     27.35871619	      5.93816534	    -10.42266745	      1.12008488	     -8.39785704	      4.22877862	      4.55499346	     40.69133300	    -19.54297184	    -14.82210540	     76.57531613	     45.31508746	      0.00000000	      0.00000000	     -9.91863965	    -11.03788356	     10.78385078	     34.03430071	     44.39639132	      0.00000000	      0.00000000
     24.25285714	     -4.10267356	     -5.33644738	     12.42926880	      0.95275040	      0.91577784	      0.47608843	      0.62240885	      3.52838556	    -18.24318373	     16.06452890	     16.06452890	     18.87803016	     -4.98845499	     -2.75367633	     29.24191942	     -5.69748742	      4.01427824	     28.09254535	     28.09254535	      6.76708546	    -11.07561563	      1.75849966	     -8.31816354	      4.10553902	      4.81453726	     40.09243048	    -19.38104894	    -15.16315830	     74.20412458	     45.40446344	      0.00000000	      0.00000000	     -9.22829926	    -11.23586445	     10.25540997	     34.69544931	     44.50778582	      0.00000000	      0.00000000
     24.27164286	     -4.13237610	     -5.33019111	     12.22855985	      0.95384475	      0.91598488	      0.47191280	      0.17381134	      3.26552003	    -18.13442544	     16.12704135	     16.12704135	     18.73696726	     -4.81532812	     -2.69849606	     29.00683921	     -5.52184725	      4.03222809	     28.67002294	     28.67002294	      7.28564310	    -11.48940573	      1.64660232	     -8.33542215	      4.06736969	      4.82524733	     39.05675609	    -18.89968030	    -15.03149937	     73.44035861	     45.42031818	      0.00000000	      0.00000000	     -8.54374982	    -11.44691825	     10.09956341	     35.03171981	     44.54152155	      0.00000000	      0.00000000
     24.29042857	     -4.23724484	     -5.31405724	     11.94720920	      0.95481844	      0.91638459	      0.46755578	     -0.21275899	      2.84467646	    -18.57359939	     16.19198025	     16.19198025	     18.67234114	     -3.62668410	     -2.62468847	     28.82719535	     -5.23828863	      4.24452453	     29.28986928	     29.28986928	      8.65362328	    -11.98145350	      4.03913285	     -8.09923874	      3.92151646	      4.53761031	     39.51988859	    -18.18035507	    -15.46850185	     67.77655091	     45.62277472	      0.00000000	      0.00000000	     -8.72817365	    -11.64377949	      8.26857093	     37.07328327	     44.85823800	      0.00000000	      0.00000000
     24.30921429	     -4.36051006	     -5.40328806	     11.60922743	      0.95573309	      0.91684718	      0.46332187	     -0.47243258	      2.61162203	    -18.39258120	     16.31687682	     16.31687682	     18.32378217	     -3.45868075	     -2.54100343	     28.50396113	     -5.18019093	      4.13519028	     29.48933205	     29.48933205	      9.14964723	    -12.28990960	      3.89155460	     -8.04898573	      4.06442165	      4.43935935	     38.60869735	    -17.88078552	    -15.35837975	     67.26855059	     45.63123508	      0.00000000	      0.00000000	     -8.12985682	    -11.79459762	      8.15504607	     37.35421347	     44.88211383	      0.00000000	      0.00000000
     24.32800000	     -4.43662681	     -5.30886275	     11.18710760	      0.95669318	      0.91764889	      0.45908633	     -0.81311147	      2.11737169	    -18.44563637	     16.48850637	     16.48850637	     18.11780015	     -2.74496458	     -2.68643114	     27.99865785	     -4.92216835	      4.04314418	     29.57053034	     29.57053034	      9.55872919	    -12.85609207	      4.31495787	     -7.94326266	      3.85424749	      5.75873926	     36.90194891	    -18.85625658	    -15.55106960	     63.63024320	     45.75347257	      0.00000000	      0.00000000	     -7.09191255	    -12.04351424	      7.36418477	     38.89359247	     45.01173004	      0.00000000	      0.00000000
     24.34678571	     -4.57416815	     -5.23848772	     10.79739731	      0.95736395	      0.91834814	      0.45467495	     -0.92762968	      1.54135923	    -18.65086910	     16.92202313	     16.92202313	     17.77719513	     -1.94750142	     -3.16035139	     27.57548677	     -4.66636402	      3.89006709	     29.65359589	     29.65359589	     10.34388557	    -13.14629434	      5.47083584	     -7.78382374	      3.79556158	      4.76219213	     37.73253327	    -17.50718166	    -15.35858245	     57.67619572	     45.93349428	      0.00000000	      0.00000000	     -7.66919322	    -12.32339567	      5.74714074	     41.11870689	     45.26681345	      0.00000000	      0.00000000
     24.36557143	     -4.72077594	     -5.18589095	     10.33578766	      0.95792277	      0.91907987	      0.45039551	     -0.89906881	      1.00212135	    -18.45672008	     17.53726113	     17.53726113	     17.46617019	     -1.69096090	     -3.33745668	     27.06503087	     -4.49536181	      3.55352795	     29.51617589	     29.51617589	     10.70932505	    -13.36327363	      5.54061517	     -7.73666342	      3.78795842	      5.33184591	     36.24208373	    -17.87810291	    -15.33810001	     55.63536072	     45.99285942	      0.00000000	      0.00000000	     -6.78424944	    -12.49680259	      5.25189937	     42.04867223	     45.34908949	      0.00000000	      0.00000000
     24.38435714	     -4.87271025	     -5.07772967	      9.88119403	      0.95835407	      0.91975840	      0.44601339	     -0.77050950	      0.33901458	    -18.34453671	     18.33810145	     18.33810145	     17.18268078	     -1.36904558	     -3.65973111	     26.55088675	     -4.25642561	      3.16864456	     29.35908815	     29.35908815	     11.03898870	    -13.58640888	      5.64381327	     -7.68588299	      3.74682422	      5.61653930	     34.87176510	    -18.03943931	    -15.35099216	     53.20722361	     46.06815951	      0.00000000	      0.00000000	     -6.02325497	    -12.75059215	      4.90394596	     42.98053009	     45.41161081	      0.00000000	      0.00000000
